<svg width="111" height="56" viewBox="0 0 111 56" fill="none" xmlns="http://www.w3.org/2000/svg">
<g filter="url(#filter0_d_18_116)">
<path d="M3.904 4.2H12.352V22.504H26.816V4.2H35.264V49H26.816V30.568H12.352V49H3.904V4.2Z" fill="white"/>
<path d="M27.248 4.2H55.536V12.264H35.696V22.504H54.768V30.568H35.696V40.936H56.304V49H27.248V4.2Z" fill="#DFFF00"/>
<path d="M46.944 40.936H51.168V12.264H46.944V4.2H66.592C68.7253 4.2 70.6027 4.49866 72.224 5.096C73.888 5.69333 75.2747 6.504 76.384 7.528C77.536 8.552 78.3893 9.78933 78.944 11.24C79.5413 12.648 79.84 14.184 79.84 15.848V16.616C79.84 19.176 79.1147 21.224 77.664 22.76C76.256 24.296 74.464 25.3627 72.288 25.96V27.112C74.464 27.7093 76.256 28.7973 77.664 30.376C79.1147 31.912 79.84 33.96 79.84 36.52V37.288C79.84 38.952 79.5413 40.5093 78.944 41.96C78.3893 43.368 77.536 44.6053 76.384 45.672C75.2747 46.696 73.888 47.5067 72.224 48.104C70.6027 48.7013 68.7253 49 66.592 49H46.944V40.936ZM59.616 40.936H65.76C67.552 40.936 69.0027 40.552 70.112 39.784C71.2213 39.016 71.776 37.736 71.776 35.944V35.56C71.776 33.768 71.2213 32.488 70.112 31.72C69.0027 30.952 67.552 30.568 65.76 30.568H59.616V40.936ZM59.616 22.504H65.76C67.552 22.504 69.0027 22.1413 70.112 21.416C71.2213 20.648 71.776 19.368 71.776 17.576V17.192C71.776 15.4 71.2213 14.1413 70.112 13.416C69.0027 12.648 67.552 12.264 65.76 12.264H59.616V22.504Z" fill="white"/>
<path d="M81.248 4.2H89.696L89.696 40.936H110.048V49H81.248L81.248 4.2Z" fill="white"/>
</g>
<defs>
<filter id="filter0_d_18_116" x="0" y="0" width="110.048" height="60" filterUnits="userSpaceOnUse" color-interpolation-filters="sRGB">
<feFlood flood-opacity="0" result="BackgroundImageFix"/>
<feColorMatrix in="SourceAlpha" type="matrix" values="0 0 0 0 0 0 0 0 0 0 0 0 0 0 0 0 0 0 127 0" result="hardAlpha"/>
<feOffset dy="4"/>
<feComposite in2="hardAlpha" operator="out"/>
<feColorMatrix type="matrix" values="0 0 0 0 1 0 0 0 0 1 0 0 0 0 1 0 0 0 0.77 0"/>
<feBlend mode="normal" in2="BackgroundImageFix" result="effect1_dropShadow_18_116"/>
<feBlend mode="normal" in="SourceGraphic" in2="effect1_dropShadow_18_116" result="shape"/>
</filter>
</defs>
</svg>
